<?xml version="1.0" encoding="UTF-8"?>
<svg width="24px" height="18px" viewBox="0 0 24 18" version="1.1" xmlns="http://www.w3.org/2000/svg" xmlns:xlink="http://www.w3.org/1999/xlink">
    <!-- Generator: Sketch 46 (44423) - http://www.bohemiancoding.com/sketch -->
    <title>camera</title>
    <desc>Created with Sketch.</desc>
    <defs></defs>
    <g id="icons" stroke="none" stroke-width="1" fill="none" fill-rule="evenodd">
        <g id="Artboard" transform="translate(-574.000000, -152.000000)" fill-rule="nonzero" fill="#FFFFFF">
            <path d="M575,157.999422 L575,167.000578 C575,168.104567 575.892645,169 576.99109,169 L595.00891,169 C596.106359,169 597,168.10441 597,167.000578 L597,157.999422 C597,156.896098 596.104032,156 595,156 L591.279241,156 L590.684632,154.216173 C590.47111,153.575608 589.673661,153 589.000385,153 L582.999615,153 C582.321186,153 581.530078,153.572045 581.315368,154.216173 L580.720759,156 L577,156 C575.897421,156 575,156.896552 575,157.999422 Z M574,157.999422 C574,156.342887 575.346517,155 577,155 L580,155 L580.366685,153.899946 C580.716455,152.850635 581.887433,152 582.999615,152 L589.000385,152 C590.104742,152 591.283885,152.851655 591.633315,153.899946 L592,155 L595,155 C596.656854,155 598,156.344351 598,157.999422 L598,167.000578 C598,168.657113 596.658229,170 595.00891,170 L576.99109,170 C575.339157,170 574,168.655649 574,167.000578 L574,157.999422 Z M586,166 C583.790861,166 582,164.209139 582,162 C582,159.790861 583.790861,158 586,158 C588.209139,158 590,159.790861 590,162 C590,164.209139 588.209139,166 586,166 Z M586,167 C588.761424,167 591,164.761424 591,162 C591,159.238576 588.761424,157 586,157 C583.238576,157 581,159.238576 581,162 C581,164.761424 583.238576,167 586,167 Z" id="camera"></path>
        </g>
    </g>
</svg>