<?xml version="1.0" encoding="UTF-8"?>
<svg width="22px" height="19px" viewBox="0 0 22 19" version="1.1" xmlns="http://www.w3.org/2000/svg" xmlns:xlink="http://www.w3.org/1999/xlink">
    <!-- Generator: Sketch 46 (44423) - http://www.bohemiancoding.com/sketch -->
    <title>chat</title>
    <desc>Created with Sketch.</desc>
    <defs></defs>
    <g id="icons" stroke="none" stroke-width="1" fill="none" fill-rule="evenodd">
        <g id="Artboard" transform="translate(-678.000000, -203.000000)" fill-rule="nonzero" fill="#FFFFFF">
            <path d="M684.148825,219.00119 L684.509932,219.147111 C685.890437,219.704966 687.417733,220 689,220 C694.562144,220 699,216.369027 699,212 C699,207.630973 694.562144,204 689,204 C683.437856,204 679,207.630973 679,212 C679,213.51535 679.52973,214.97128 680.522066,216.23665 L680.7855,216.572567 L680.228539,220.471298 L684.148825,219.00119 Z M679,222 L679.735179,216.853748 C678.636909,215.453296 678,213.787504 678,212 C678,207.029437 682.924868,203 689,203 C695.075132,203 700,207.029437 700,212 C700,216.970563 695.075132,221 689,221 C687.253457,221 685.601984,220.666964 684.135271,220.074273 L679,222 Z" id="chat"></path>
        </g>
    </g>
</svg>