<?xml version="1.0" encoding="UTF-8"?>
<svg width="20px" height="22px" viewBox="0 0 20 22" version="1.1" xmlns="http://www.w3.org/2000/svg" xmlns:xlink="http://www.w3.org/1999/xlink">
    <!-- Generator: Sketch 46 (44423) - http://www.bohemiancoding.com/sketch -->
    <title>done</title>
    <desc>Created with Sketch.</desc>
    <defs></defs>
    <g id="icons" stroke="none" stroke-width="1" fill="none" fill-rule="evenodd">
        <g id="Artboard" transform="translate(-424.000000, -150.000000)" fill-rule="nonzero" fill="#FFFFFF">
            <path d="M431.994202,152 L431.994202,153 L427.005798,153 C425.899018,153 425,153.894918 425,154.994202 L425,169.005798 C425,170.1055 425.893931,171 426.994202,171 L441.005798,171 C442.104633,171 443,170.101738 443,168.994202 L443,161 L444,161 L444,168.994202 C444,170.654258 442.656688,172 441.005798,172 L426.994202,172 C425.34055,172 424,170.656688 424,169.005798 L424,154.994202 C424,153.34055 425.348816,152 427.005798,152 L431.994202,152 Z M431.994202,152 L431.994202,153 L427.005798,153 C425.899018,153 425,153.894918 425,154.994202 L425,169.005798 C425,170.1055 425.893931,171 426.994202,171 L441.005798,171 C442.104633,171 443,170.101738 443,168.994202 L443,161 L444,161 L444,168.994202 C444,170.654258 442.656688,172 441.005798,172 L426.994202,172 C425.34055,172 424,170.656688 424,169.005798 L424,154.994202 C424,153.34055 425.348816,152 427.005798,152 L431.994202,152 Z M429.384072,160.681347 L433.919746,166.122809 L442.564212,150.754869 L443.435788,151.245131 L434.080254,167.877191 L428.615928,161.321625 L429.384072,160.681347 Z" id="done"></path>
        </g>
    </g>
</svg>