<?xml version="1.0" encoding="UTF-8"?>
<svg width="52px" height="38px" viewBox="0 0 52 38" version="1.1" xmlns="http://www.w3.org/2000/svg" xmlns:xlink="http://www.w3.org/1999/xlink">
    <!-- Generator: Sketch 47.1 (45422) - http://www.bohemiancoding.com/sketch -->
    <title>DSLR</title>
    <desc>Created with Sketch.</desc>
    <defs></defs>
    <g id="Stage" stroke="none" stroke-width="1" fill="none" fill-rule="evenodd">
        <g id="Artboard" transform="translate(-165.000000, -126.000000)" fill="#FFFFFF">
            <path d="M178,130 L181,130 L182.185082,127.629835 L182.185082,127.629835 C182.684518,126.630965 183.70544,126 184.822211,126 L197.177789,126 L197.177789,126 C198.29456,126 199.315482,126.630965 199.814918,127.629835 L201,130 L210.590287,130 C212.819084,130 213.627299,130.232064 214.442114,130.667832 C215.256929,131.103599 215.896401,131.743071 216.332168,132.557886 C216.767936,133.372701 217,134.180916 217,136.409713 L217,157.590287 C217,159.819084 216.767936,160.627299 216.332168,161.442114 C215.896401,162.256929 215.256929,162.896401 214.442114,163.332168 C213.627299,163.767936 212.819084,164 210.590287,164 L171.409713,164 C169.180916,164 168.372701,163.767936 167.557886,163.332168 C166.743071,162.896401 166.103599,162.256929 165.667832,161.442114 C165.232064,160.627299 165,159.819084 165,157.590287 L165,136.409713 C165,134.180916 165.232064,133.372701 165.667832,132.557886 C166.103599,131.743071 166.743071,131.103599 167.557886,130.667832 C168.320703,130.259873 169.077736,130.030448 171.000002,130.002828 C171.000001,130.001885 171,130.000943 171,130 C171,128.895431 171.895431,128 173,128 L176,128 C177.104569,128 178,128.895431 178,130 Z M191,158 C197.075132,158 202,153.075132 202,147 C202,140.924868 197.075132,136 191,136 C184.924868,136 180,140.924868 180,147 C180,153.075132 184.924868,158 191,158 Z M191,156 C186.029437,156 182,151.970563 182,147 C182,142.029437 186.029437,138 191,138 C195.970563,138 200,142.029437 200,147 C200,151.970563 195.970563,156 191,156 Z M209,136 L212,136 C212.552285,136 213,135.552285 213,135 C213,134.447715 212.552285,134 212,134 L209,134 C208.447715,134 208,134.447715 208,135 C208,135.552285 208.447715,136 209,136 Z" id="DSLR"></path>
        </g>
    </g>
</svg>