<?xml version="1.0" encoding="UTF-8"?>
<svg width="28px" height="37px" viewBox="0 0 28 37" version="1.1" xmlns="http://www.w3.org/2000/svg" xmlns:xlink="http://www.w3.org/1999/xlink">
    <!-- Generator: Sketch 47.1 (45422) - http://www.bohemiancoding.com/sketch -->
    <title>eco</title>
    <desc>Created with Sketch.</desc>
    <defs></defs>
    <g id="Stage" stroke="none" stroke-width="1" fill="none" fill-rule="evenodd">
        <g id="Artboard" transform="translate(-538.000000, -201.000000)" fill-rule="nonzero" fill="#FFFFFF">
            <path d="M541.627194,231.575037 C541.047456,232.975602 540.795286,234.546389 540.770531,236.475299 C540.763444,237.027538 540.31002,237.469471 539.757781,237.462384 C539.205542,237.455297 538.763609,237.001873 538.770696,236.449634 C538.802308,233.98638 539.303593,231.869046 540.256931,229.998307 C537.558771,225.843649 538.504089,218.584812 544.131612,214.139188 C546.424172,212.328114 548.384441,211.415263 551.897468,210.235384 C552.03319,210.1898 552.182963,210.139679 552.465801,210.045059 C552.694787,209.968387 552.862113,209.912095 553.026162,209.856413 C557.501264,208.337454 559.774256,206.850426 562.304227,203.055469 L563.107894,201.849968 L563.95001,203.028931 C567.767147,208.372923 564.873795,223.671641 559.186529,229.358907 C553.820505,234.724931 546.147585,235.591503 541.627194,231.575037 Z M542.621938,229.764859 C542.624683,229.767617 542.62743,229.77037 542.63018,229.773121 C546.237653,233.380593 552.968299,232.74871 557.772316,227.944693 C562.395838,223.321171 565.043187,210.994492 563.006373,205.518396 C560.526499,208.772796 557.969485,210.290597 553.668991,211.75029 C553.501843,211.807024 553.332184,211.864101 553.100815,211.941571 C552.817269,212.036428 552.668746,212.086131 552.53423,212.131309 C549.221368,213.243962 547.442794,214.072202 545.371389,215.708568 C540.947632,219.203242 539.937299,224.649004 541.469205,228.058826 C541.707596,227.740827 541.961486,227.430154 542.230762,227.126163 C543.889189,225.253921 545.446857,224.118737 549.412234,221.610686 C554.328806,218.501017 556.378766,216.818357 558.054674,213.960412 C558.334045,213.483998 558.94673,213.324263 559.423144,213.603634 C559.899558,213.883005 560.059293,214.49569 559.779922,214.972104 C557.88972,218.195486 555.660946,220.024921 550.481318,223.30097 C546.563953,225.778654 544.09148,227.656892 542.621938,229.764859 Z" id="eco"></path>
        </g>
    </g>
</svg>