<?xml version="1.0" encoding="UTF-8"?>
<svg width="21px" height="21px" viewBox="0 0 21 21" version="1.1" xmlns="http://www.w3.org/2000/svg" xmlns:xlink="http://www.w3.org/1999/xlink">
    <!-- Generator: Sketch 46 (44423) - http://www.bohemiancoding.com/sketch -->
    <title>Edit</title>
    <desc>Created with Sketch.</desc>
    <defs></defs>
    <g id="icons" stroke="none" stroke-width="1" fill="none" fill-rule="evenodd">
        <g id="Artboard" transform="translate(-67.000000, -101.000000)" fill-rule="nonzero" fill="#FFFFFF">
            <path d="M69.5606602,115.853553 L73.0757319,119.368625 L83.4200704,109.127177 L79.8535534,105.56066 L69.5606602,115.853553 Z M68.8535534,116.56066 L68,117.414214 L68,120.997959 L71.4371077,120.990951 L72.3650909,120.072198 L68.8535534,116.56066 Z M80.5606602,104.853553 L84.1307114,108.423605 L85.8773193,106.694369 C86.2676688,106.307903 86.2672584,105.681472 85.8734682,105.287682 L83.7123182,103.126532 C83.3176716,102.731885 82.681876,102.732338 82.2872135,103.127 L80.5606602,104.853553 Z M81.5801067,102.419893 C82.3642921,101.635708 83.6332535,101.633253 84.419425,102.419425 L86.580575,104.580575 C87.3645018,105.364502 87.3668712,106.626831 86.5808831,107.405002 L71.8492432,121.990112 L67,122 L67,117 L81.5801067,102.419893 Z" id="Edit"></path>
        </g>
    </g>
</svg>