<?xml version="1.0" encoding="UTF-8"?>
<svg width="22px" height="6px" viewBox="0 0 22 6" version="1.1" xmlns="http://www.w3.org/2000/svg" xmlns:xlink="http://www.w3.org/1999/xlink">
    <!-- Generator: Sketch 46 (44423) - http://www.bohemiancoding.com/sketch -->
    <title>h-dots</title>
    <desc>Created with Sketch.</desc>
    <defs></defs>
    <g id="icons" stroke="none" stroke-width="1" fill="none" fill-rule="evenodd">
        <g id="Artboard" transform="translate(-218.000000, -158.000000)" fill-rule="nonzero" fill="#FFFFFF">
            <path d="M221,163 C222.104569,163 223,162.104569 223,161 C223,159.895431 222.104569,159 221,159 C219.895431,159 219,159.895431 219,161 C219,162.104569 219.895431,163 221,163 Z M221,164 C219.343146,164 218,162.656854 218,161 C218,159.343146 219.343146,158 221,158 C222.656854,158 224,159.343146 224,161 C224,162.656854 222.656854,164 221,164 Z M229,164 C227.343146,164 226,162.656854 226,161 C226,159.343146 227.343146,158 229,158 C230.656854,158 232,159.343146 232,161 C232,162.656854 230.656854,164 229,164 Z M229,163 C230.104569,163 231,162.104569 231,161 C231,159.895431 230.104569,159 229,159 C227.895431,159 227,159.895431 227,161 C227,162.104569 227.895431,163 229,163 Z M237,164 C235.343146,164 234,162.656854 234,161 C234,159.343146 235.343146,158 237,158 C238.656854,158 240,159.343146 240,161 C240,162.656854 238.656854,164 237,164 Z M237,163 C238.104569,163 239,162.104569 239,161 C239,159.895431 238.104569,159 237,159 C235.895431,159 235,159.895431 235,161 C235,162.104569 235.895431,163 237,163 Z" id="h-dots"></path>
        </g>
    </g>
</svg>