<?xml version="1.0" encoding="UTF-8"?>
<svg width="22px" height="19px" viewBox="0 0 22 19" version="1.1" xmlns="http://www.w3.org/2000/svg" xmlns:xlink="http://www.w3.org/1999/xlink">
    <!-- Generator: Sketch 46 (44423) - http://www.bohemiancoding.com/sketch -->
    <title>like</title>
    <desc>Created with Sketch.</desc>
    <defs></defs>
    <g id="icons" stroke="none" stroke-width="1" fill="none" fill-rule="evenodd">
        <g id="Artboard" transform="translate(-779.000000, -153.000000)" fill-rule="nonzero" fill="#FFFFFF">
            <path d="M790.15417,170.808611 C790.494612,170.598286 790.940103,170.289503 791.438396,169.9159 C792.603526,169.042327 793.903534,167.934649 795.093122,166.776215 C798.134355,163.814628 800,160.992612 800,159 C800,156.238576 797.761424,154 795,154 C793.304401,154 791.754591,154.849394 790.832733,156.235879 L790,157.488321 L789.167267,156.235879 C788.245409,154.849394 786.695599,154 785,154 C782.238576,154 780,156.238576 780,159 C780,160.994262 781.856108,163.816603 784.881653,166.777998 C786.065287,167.936536 787.358769,169.044155 788.517776,169.917269 C789.01364,170.290818 789.456905,170.599453 789.795632,170.809589 C789.860469,170.849812 789.920101,170.885548 789.973693,170.916441 C790.02796,170.885305 790.088406,170.84924 790.15417,170.808611 Z M790,155.682205 C790.085406,155.553753 790.302177,155.282071 790.650315,154.867158 C791.743455,153.717028 793.287992,153 795,153 C798.313708,153 801,155.686292 801,159 C801,164.313708 790.784446,172 789.972949,172 C789.161451,172 779,164.313708 779,159 C779,155.686292 781.686292,153 785,153 C786.712008,153 788.256545,153.717028 789.349685,154.867158 C789.697823,155.282071 789.914594,155.553753 790,155.682205 Z" id="like"></path>
        </g>
    </g>
</svg>